#!OML:ASF E:\acrobat2\Project_11_07_03\Capture day 1\Session 1\Acrobat.ASF
:FULLY-SPECIFIED
:DEGREES
1
root 5.91014 17.9198 -23.5269 1.18127 78.4611 -2.82623
lowerback -4.96794 -6.06914 2.56768
upperback 1.85893 -8.18374 -2.09857
thorax 4.02809 -3.97196 -4.23737
lowerneck 11.8672 -23.5308 -6.52356
upperneck 0.203679 -31.9964 13.5784
head 1.50961 -16.33 4.7103
rclavicle -6.41081e-014 -8.74653e-015
rhumerus -29.5496 8.88676 -90.7083
rradius 26.2376
rwrist 0.774994
rhand -8.36254 -44.4488
rfingers 7.12502
rthumb 17.56 -73.6758
lclavicle -6.41081e-014 -8.74653e-015
lhumerus -41.6489 -1.29889 73.9172
lradius 29.3654
lwrist 14.7269
lhand -9.25676 -12.1681
lfingers 7.12502
lthumb 16.6993 17.1336
rfemur 0.513626 13.8991 7.77395
rtibia -0.748517
rfoot -20.932 -31.7622
rtoes 0.406656
lfemur 8.22493 -5.54124 -7.77455
ltibia -0.140126
lfoot -29.7614 1.15424
ltoes 48.8153
2
root 5.91983 17.927 -23.5213 0.268336 78.6345 -4.00802
lowerback -5.14493 -6.25381 0.908819
upperback 1.8265 -8.38575 -0.572031
thorax 4.54063 -4.12441 -1.83126
lowerneck 11.5866 -23.5846 -7.4856
upperneck -0.177455 -32.1476 13.2092
head 1.52695 -16.3961 4.66034
rclavicle -4.83047e-014 1.19271e-015
rhumerus -29.6235 9.53874 -88.4545
rradius 26.5988
rwrist 0.453713
rhand -7.4347 -43.1425
rfingers 7.12502
rthumb 18.4527 -72.2873
lclavicle -4.83047e-014 1.19271e-015
lhumerus -41.0072 1.16901 75.0428
lradius 28.9305
lwrist 13.7172
lhand -9.13193 -12.5816
lfingers 7.12502
lthumb 16.8194 16.71
rfemur 0.334728 13.3359 8.01178
rtibia -0.824804
rfoot -19.6424 -32.0727
rtoes -2.70092
lfemur 7.87398 -4.98627 -7.3173
ltibia -0.0154088
lfoot -29.084 1.22513
ltoes 48.1287
3
root 5.92393 17.9261 -23.5221 0.788962 78.6168 -3.47413
lowerback -4.93482 -6.36134 -1.0032
upperback 1.7929 -8.46115 0.807258
thorax 4.87449 -4.23612 0.604804
lowerneck 11.3977 -23.705 -8.28947
upperneck -0.849837 -32.3437 12.7564
head 1.41033 -16.4883 4.61363
rclavicle -1.81018e-014 3.97569e-016
rhumerus -29.6397 10.1417 -86.1721
rradius 26.9274
rwrist 0.244229
rhand -6.33131 -42.6122
rfingers 7.12502
rthumb 19.5138 -71.6529
lclavicle -1.81018e-014 3.97569e-016
lhumerus -40.5656 2.99277 76.4381
lradius 28.7876
lwrist 12.9584
lhand -9.10935 -12.8581
lfingers 7.12502
lthumb 16.8412 16.4315
rfemur 0.38035 13.3411 7.86473
rtibia -0.811947
rfoot -20.485 -31.5222
rtoes 0.414675
lfemur 7.9007 -4.82258 -7.44077
ltibia -0.0106857
lfoot -28.9719 1.0361
ltoes 48.332
4
root 5.92308 17.9218 -23.5259 1.30765 78.4637 -2.80123
lowerback -4.27732 -6.39734 -4.42697
upperback 1.69408 -8.42314 3.34986
thorax 5.30874 -4.38319 5.14066
lowerneck 11.2561 -23.8059 -10.0663
upperneck -2.22847 -32.5968 12.1521
head 1.19186 -16.6007 4.64167
rclavicle -3.79679e-014 5.1684e-015
rhumerus -29.5945 13.3938 -82.8182
rradius 27.6507
rwrist -0.447175
rhand -5.95889 -43.3763
rfingers 7.12502
rthumb 19.8719 -72.3804
lclavicle -3.79679e-014 5.1684e-015
lhumerus -39.9035 5.96705 79.4887
lradius 28.5937
lwrist 11.717
lhand -9.27441 -12.915
lfingers 7.12502
lthumb 16.6823 16.3882
rfemur 0.423288 12.9729 7.68623
rtibia -0.819735
rfoot -18.9056 -31.7392
rtoes -4.04212
lfemur 8.16028 -4.93481 -7.67341
ltibia -0.129045
lfoot -29.2059 0.988245
ltoes 48.6892
5
root 5.91907 17.9183 -23.5293 3.57605 78.2438 -0.351798
lowerback -4.03053 -6.429 -4.91267
upperback 1.61832 -8.44185 3.21589
thorax 5.1438 -4.40229 5.29648
lowerneck 11.524 -23.5785 -10.3027
upperneck -2.17413 -32.3417 12.2648
head 1.19681 -16.4822 4.73215
rclavicle -5.69518e-014 -5.96354e-015
rhumerus -29.9758 13.4001 -82.7286
rradius 27.4326
rwrist -0.707885
rhand -5.06591 -42.6857
rfingers 7.12502
rthumb 20.7301 -71.5984
lclavicle -5.69518e-014 -5.96354e-015
lhumerus -40.0561 6.03199 79.2763
lradius 28.9585
lwrist 11.7975
lhand -9.43074 -12.6414
lfingers 7.12502
lthumb 16.5318 16.6743
rfemur 0.443865 12.991 7.04522
rtibia -0.771882
rfoot -18.6882 -31.6102
rtoes -4.66829
lfemur 8.4199 -5.19558 -8.3989
ltibia -0.272341
lfoot -29.6153 1.1979
ltoes 48.6906
6
root 5.91596 17.9182 -23.5311 4.65903 78.1612 0.792594
lowerback -3.89977 -6.46196 -5.15
upperback 1.56198 -8.47676 3.16994
thorax 5.04403 -4.42356 5.39232
lowerneck 11.5488 -23.7454 -10.164
upperneck -2.23956 -32.5432 12.0043
head 1.13056 -16.5766 4.65902
rclavicle 2.45002e-014 -4.77083e-015
rhumerus -30.8572 13.2875 -82.7931
rradius 27.8596
rwrist -0.670748
rhand -4.65689 -40.1261
rfingers 7.12502
rthumb 21.123 -68.9955
lclavicle 2.45002e-014 -4.77083e-015
lhumerus -40.0861 5.79271 79.2095
lradius 29.3054
lwrist 11.9352
lhand -9.3979 -12.616
lfingers 7.12502
lthumb 16.5634 16.6972
rfemur 0.426518 13.0643 6.73779
rtibia -0.677126
rfoot -19.0993 -31.4232
rtoes -4.08647
lfemur 8.47392 -5.29593 -8.73506
ltibia -0.298198
lfoot -29.7629 1.47479
ltoes 48.337
7
root 5.9212 17.9293 -23.5247 -2.97942 78.5839 -7.19077
lowerback -4.10629 -6.58701 -3.4881
upperback 1.55874 -8.74017 3.63054
thorax 5.0114 -4.50661 4.91131
lowerneck 11.3733 -23.9612 -9.97481
upperneck -2.07087 -32.8047 11.716
head 1.15759 -16.6937 4.5279
rclavicle 6.80837e-014 3.49861e-014
rhumerus -31.0011 13.1587 -82.8152
rradius 27.4555
rwrist -0.62231
rhand -4.48277 -40.7043
rfingers 7.12502
rthumb 21.2903 -69.5549
lclavicle 6.80837e-014 3.49861e-014
lhumerus -39.9715 5.46302 79.2173
lradius 29.603
lwrist 12.1601
lhand -9.45224 -12.6999
lfingers 7.12502
lthumb 16.5111 16.6176
rfemur 0.459511 13.1719 8.83111
rtibia -0.681407
rfoot -19.7638 -31.7177
rtoes -3.36368
lfemur 8.03995 -4.78541 -6.53465
ltibia -0.0683493
lfoot -28.8846 1.29657
ltoes 48.01
8
root 5.92308 17.9307 -23.5242 -3.4519 78.59 -7.65776
lowerback -4.07399 -6.66541 -3.36059
upperback 1.553 -8.85421 3.68827
thorax 4.99063 -4.55978 4.89281
lowerneck 11.3747 -23.8182 -10.2267
upperneck -1.83718 -32.6596 11.8135
head 1.26718 -16.6212 4.55564
rclavicle -1.76421e-014 1.74931e-014
rhumerus -31.6278 13.2198 -82.7506
rradius 28.1215
rwrist -0.545527
rhand -3.83575 -41.1359
rfingers 7.12502
rthumb 21.9117 -69.9151
lclavicle -1.76421e-014 1.74931e-014
lhumerus -39.9013 5.6257 79.0543
lradius 29.8496
lwrist 12.2269
lhand -9.58233 -12.6778
lfingers 7.12502
lthumb 16.3858 16.6501
rfemur 0.500027 13.0996 8.95596
rtibia -0.711318
rfoot -19.5609 -31.7541
rtoes -4.17262
lfemur 8.07829 -4.78567 -6.42932
ltibia -0.0861705
lfoot -28.827 1.14439
ltoes 48.0802
9
root 5.92295 17.9306 -23.5241 -3.51249 78.5698 -7.74262
lowerback -4.05664 -6.7372 -3.31752
upperback 1.51367 -8.95343 3.72306
thorax 4.95046 -4.60708 4.89859
lowerneck 11.4398 -23.7121 -10.3533
upperneck -1.83229 -32.5386 11.8267
head 1.2674 -16.5623 4.58396
rclavicle 3.06128e-014 -7.95139e-015
rhumerus -31.9238 13.643 -82.8228
rradius 28.0859
rwrist -0.972459
rhand -4.2759 -41.4405
rfingers 7.12502
rthumb 21.489 -70.2685
lclavicle 3.06128e-014 -7.95139e-015
lhumerus -39.8883 5.9217 78.7814
lradius 30.0857
lwrist 12.0847
lhand -9.49557 -12.7306
lfingers 7.12502
lthumb 16.4694 16.5904
rfemur 0.472456 13.1705 8.97166
rtibia -0.740805
rfoot -19.5323 -31.8381
rtoes -4.77024
lfemur 8.06994 -4.88252 -6.43682
ltibia -0.0939291
lfoot -28.9387 1.02327
ltoes 48.3029
10
root 5.92217 17.9308 -23.5237 -3.33176 78.541 -7.56134
lowerback -4.02967 -6.74564 -3.31333
upperback 1.48765 -8.96393 3.69643
thorax 4.90391 -4.61059 4.87248
lowerneck 11.4632 -23.7299 -10.2916
upperneck -1.805 -32.5566 11.7782
head 1.25719 -16.5706 4.56963
rclavicle -1.16289e-014 8.74653e-015
rhumerus -32.0395 13.5348 -82.8453
rradius 27.6556
rwrist -1.30649
rhand -5.37921 -41.8741
rfingers 7.12502
rthumb 20.429 -70.8195
lclavicle -1.16289e-014 8.74653e-015
lhumerus -39.8 5.9785 78.5384
lradius 30.268
lwrist 11.9025
lhand -9.32104 -12.8807
lfingers 7.12502
lthumb 16.6374 16.4262
rfemur 0.473294 13.3095 8.93006
rtibia -0.763446
rfoot -19.8268 -31.8089
rtoes -3.81916
lfemur 8.07314 -4.94104 -6.49881
ltibia -0.0835548
lfoot -29.0952 0.713345
ltoes 48.881
11
root 5.92105 17.932 -23.5235 -2.75001 78.5306 -6.96643
lowerback -3.94238 -6.83153 -3.46058
upperback 1.42385 -9.07358 3.73617
thorax 4.83127 -4.66883 4.9955
lowerneck 11.5232 -23.6385 -10.4866
upperneck -1.77673 -32.4653 11.8325
head 1.28518 -16.5269 4.60523
rclavicle 2.26118e-014 -3.97569e-015
rhumerus -32.0663 13.0912 -82.5783
rradius 27.2565
rwrist -0.97352
rhand -5.73099 -42.2584
rfingers 7.12502
rthumb 20.0909 -71.2397
lclavicle 2.26118e-014 -3.97569e-015
lhumerus -39.743 6.31174 78.3777
lradius 30.3939
lwrist 11.7684
lhand -9.31783 -12.959
lfingers 7.12502
lthumb 16.6405 16.3477
rfemur 0.475551 13.3414 8.78354
rtibia -0.776255
rfoot -19.939 -31.7767
rtoes -2.81907
lfemur 8.06874 -4.96322 -6.65295
ltibia -0.0755337
lfoot -29.1515 0.39074
ltoes 49.359
12
root 5.92118 17.9324 -23.5217 -2.34734 78.5208 -6.57591
lowerback -3.79517 -7.07681 -3.72514
upperback 1.26603 -9.39868 3.99133
thorax 4.71187 -4.83963 5.39431
lowerneck 11.6177 -23.3836 -11.1538
upperneck -1.74759 -32.2214 11.8073
head 1.34656 -16.4033 4.6674
rclavicle -9.70069e-014 3.4191e-014
rhumerus -32.0626 13.4466 -82.1782
rradius 26.9338
rwrist -0.95507
rhand -4.96243 -42.5456
rfingers 7.12502
rthumb 20.8295 -71.4475
lclavicle -9.70069e-014 3.4191e-014
lhumerus -39.9494 7.24502 78.3153
lradius 30.5914
lwrist 11.6494
lhand -9.43201 -13.0605
lfingers 7.12502
lthumb 16.5306 16.2554
rfemur 0.449241 13.3602 8.69174
rtibia -0.793051
rfoot -19.7839 -31.9311
rtoes -3.23363
lfemur 8.05202 -5.08181 -6.77739
ltibia -0.0773031
lfoot -29.2551 0.562192
ltoes 49.1231
13
root 5.92307 17.9322 -23.5193 -2.58319 78.4943 -6.82269
lowerback -4.04363 -6.69661 -3.39885
upperback 1.46843 -8.88967 3.58994
thorax 4.87817 -4.5737 4.8167
lowerneck 11.5222 -23.9065 -9.83648
upperneck -2.01715 -32.7218 11.7577
head 1.13157 -16.6576 4.55245
rclavicle 7.49418e-014 -2.46493e-014
rhumerus -32.0565 11.967 -82.3263
rradius 26.2792
rwrist -0.681941
rhand -5.36555 -42.2313
rfingers 7.12502
rthumb 20.4422 -71.1753
lclavicle 7.49418e-014 -2.46493e-014
lhumerus -39.2157 5.66823 78.2054
lradius 30.7216
lwrist 11.9815
lhand -9.57032 -13.0775
lfingers 7.12502
lthumb 16.3974 16.2494
rfemur 0.457011 13.4477 8.77296
rtibia -0.796175
rfoot -19.9649 -31.9246
rtoes -3.01421
lfemur 8.06494 -5.05288 -6.70296
ltibia -0.0849279
lfoot -29.2399 0.721033
ltoes 48.8516
14
root 5.9261 17.9324 -23.5196 -2.75644 78.4591 -6.99658
lowerback -3.86278 -6.98941 -3.60927
upperback 1.29697 -9.28526 3.96651
thorax 4.74409 -4.77987 5.30855
lowerneck 11.6574 -23.5891 -10.7272
upperneck -1.96125 -32.4284 11.737
head 1.22444 -16.5085 4.63257
rclavicle 1.56046e-014 -2.8625e-014
rhumerus -31.9455 13.0853 -81.9903
rradius 25.8481
rwrist -1.15938
rhand -5.20964 -42.7187
rfingers 7.12502
rthumb 20.592 -71.6465
lclavicle 1.56046e-014 -2.8625e-014
lhumerus -39.5694 6.67818 78.1899
lradius 31.0089
lwrist 11.8075
lhand -9.56829 -13.1335
lfingers 7.12502
lthumb 16.3993 16.1932
rfemur 0.478183 13.5658 8.82667
rtibia -0.785487
rfoot -20.5329 -31.6595
rtoes -1.25301
lfemur 8.11477 -5.00974 -6.66039
ltibia -0.126099
lfoot -29.2127 0.914387
ltoes 48.6056
15
root 5.9304 17.9352 -23.5033 1.19321 78.3355 -3.16286
lowerback -4.25499 -6.83529 -4.48851
upperback 1.3105 -9.01673 3.67018
thorax 5.03474 -4.67334 5.46064
lowerneck 11.7748 -23.8296 -10.2226
upperneck -2.22312 -32.6725 11.847
head 1.09913 -16.6408 4.64499
rclavicle 1.02871e-014 -3.26007e-014
rhumerus -31.911 11.9335 -81.6997
rradius 25.4445
rwrist -0.603668
rhand -4.86255 -43.415
rfingers 7.12502
rthumb 20.9255 -72.3064
lclavicle 1.02871e-014 -3.26007e-014
lhumerus -39.2174 6.04817 78.0724
lradius 31.1862
lwrist 11.869
lhand -9.35894 -13.174
lfingers 7.12502
lthumb 16.6009 16.136
rfemur 0.231637 14.0972 7.89127
rtibia -0.82929
rfoot -20.9351 -31.9312
rtoes -0.635663
lfemur 7.97532 -5.24914 -7.59907
ltibia -0.169332
lfoot -29.643 1.22247
ltoes 48.0984
